# xmcd CD database file
#
# Track frame offsets:
#	150
#	28332
#	49329
#	64086
#	86871
#	111065
#	134089
#	160377
#	191331
#
# Disc length: 2921 seconds
#
# Revision: 0
# Processed by: cddbd v1.5.2PL0 Copyright (c) Steve Scherf et al.
# Submitted via: CDex 1.51
#
DISCID=840b6709
DTITLE=Truck Stop - Die grössten Country Medleys
DYEAR=2009
DGENRE=Country
TTITLE0=Hilly Billy Medley
TTITLE1=Jonny Cash Medley
TTITLE2=Blue Grass  Medley (Live)
TTITLE3=Super-Hit-Medley
TTITLE4=Arizona Hit Medley
TTITLE5=Schmuse-Medley
TTITLE6=Deputy-Medley
TTITLE7=Cowboy-Dance-Medley
TTITLE8=Trucker-Highway-Medley
EXTD=YEAR: 2009
EXTT0=
EXTT1=
EXTT2=
EXTT3=
EXTT4=
EXTT5=
EXTT6=
EXTT7=
EXTT8=
PLAYORDER=
